<svg id="forum-24px" xmlns="http://www.w3.org/2000/svg" width="28" height="28" viewBox="0 0 28 28">
  <path id="Path_341" data-name="Path 341" d="M0,0H28V28H0Z" transform="translate(0 0)" fill="none"/>
  <path id="Path_342" data-name="Path 342" d="M17.167,4.333V12.5H5.7L4.333,13.865V4.333H17.167M18.333,2H3.167A1.17,1.17,0,0,0,2,3.167V19.5l4.667-4.667H18.333A1.17,1.17,0,0,0,19.5,13.667V3.167A1.17,1.17,0,0,0,18.333,2Zm5.833,4.667H21.833v10.5H6.667V19.5a1.17,1.17,0,0,0,1.167,1.167H20.667l4.667,4.667V7.833A1.17,1.17,0,0,0,24.167,6.667Z" transform="translate(0.333 0.333)" fill="#1b1b1b"/>
</svg>
